<?xml version="1.0" encoding="utf-8"?>
<svg version="1.1" xmlns="http://www.w3.org/2000/svg" xmlns:xlink="http://www.w3.org/1999/xlink" x="0px" y="0px"
	 viewBox="0 0 185.1 185.1" style="enable-background:new 0 0 185.1 185.1;" xml:space="preserve">
<style type="text/css">
	.powerstrip-path{fill:#2EA3A0;}
</style>
<path class="powerstrip-path" d="M161.4,0H23.7C10.6,0,0,10.6,0,23.7v137.8c0,13,10.6,23.7,23.7,23.7h137.8c13,0,23.7-10.6,23.7-23.7V23.7
	C185.1,10.6,174.5,0,161.4,0z M127.7,104.5c-5.5,4.9-11.1,6.3-11.7,6.5c-2.8,0.7-5.7-1-6.4-3.8c-0.7-2.8,1-5.7,3.8-6.4
	c0.6-0.2,15-4.2,15-23.4c0-8.1-2.5-14.4-7.4-18.9c-2.9-2.7-6-3.9-7.1-4.3H67.8v76.9l10-10l13.8-13.8l-12.4-6.2
	c-1.5-0.8-2.6-2.2-2.8-3.9s0.3-3.4,1.5-4.6l19-19c2.1-2.1,5.4-2.1,7.5,0c2.1,2.1,2.1,5.4,0,7.5L90.4,95l12.4,6.2
	c1.5,0.8,2.6,2.2,2.8,3.9s-0.3,3.4-1.5,4.6l-19,19l-19,19l-9,9v-12.7V49v-5.3h5.3h52.2h0.6l0.6,0.2c7.9,2,23,11.6,23,33.6
	C139,91.7,132.8,100,127.7,104.5z"/>
</svg>
